<svg width="32" height="32" viewBox="0 0 32 32" fill="none" xmlns="http://www.w3.org/2000/svg">
<path d="M28 31V23.6891L28.8579 20.4724C28.9346 20.1853 28.9242 19.882 28.8282 19.6008C28.7322 19.3196 28.5548 19.0733 28.3185 18.8931C28.0823 18.7129 27.7979 18.6069 27.5013 18.5886C27.2047 18.5703 26.9094 18.6405 26.6528 18.7903L25.6404 19.3809C25.2985 19.1389 24.9302 18.9367 24.5425 18.7783L20.733 17.2546C21.3044 16.5661 21.6973 15.7473 21.8768 14.8707L23.1709 14.2236C23.4206 14.0998 23.6306 13.9084 23.7772 13.6713C23.9237 13.4342 24.0009 13.1608 24 12.8821V12.5C23.9996 12.1023 23.8414 11.721 23.5602 11.4398C23.279 11.1586 22.8977 11.0004 22.5 11H22V9.90787C22.2922 9.80597 22.5454 9.6157 22.7246 9.36344C22.9037 9.11118 23 8.80942 23 8.5C23 8.19058 22.9037 7.88883 22.7246 7.63657C22.5454 7.38431 22.2922 7.19404 22 7.09214V6.5C21.9986 5.30694 21.5241 4.16313 20.6805 3.31951C19.8369 2.47589 18.6931 2.00135 17.5 2H17.4079C17.306 1.70784 17.1157 1.45462 16.8634 1.27544C16.6112 1.09626 16.3094 1 16 1C15.6906 1 15.3888 1.09626 15.1366 1.27544C14.8843 1.45462 14.694 1.70784 14.5921 2H14.5C13.3069 2.00135 12.1631 2.47589 11.3195 3.31951C10.4759 4.16313 10.0013 5.30694 10 6.5V7.09214C9.70783 7.19403 9.4546 7.38429 9.27541 7.63655C9.09622 7.88881 8.99996 8.19056 8.99996 8.49999C8.99996 8.80941 9.09622 9.11117 9.27541 9.36343C9.4546 9.61569 9.70783 9.80595 10 9.90784V11H9.5C9.10231 11.0004 8.72103 11.1586 8.43982 11.4398C8.15861 11.721 8.00043 12.1023 8 12.5V12.8821C7.99911 13.1608 8.07631 13.4342 8.22284 13.6713C8.36938 13.9084 8.5794 14.0998 8.8291 14.2236L10.1232 14.8707C10.3027 15.7473 10.6956 16.5661 11.2671 17.2546L7.45752 18.7786C6.43477 19.1838 5.55785 19.8877 4.9411 20.7986C4.32435 21.7096 3.99639 22.7852 4 23.8853V31H28ZM10 27H15.5V28H10V27ZM18.293 28H16.5V27H19.293L18.293 28ZM10 29H15.5V30H10V29ZM16.5 29H17.57C17.4649 29.3275 17.4785 29.6815 17.6084 30H16.5V29ZM18.5 29.4395C18.4997 29.3658 18.5141 29.2928 18.5423 29.2248C18.5704 29.1567 18.6118 29.0949 18.6641 29.043L20.6465 27.0608C20.7403 26.9672 20.8674 26.9146 21 26.9146C21.1325 26.9145 21.2596 26.967 21.3535 27.0605L21.4395 27.1467C21.4859 27.1931 21.5227 27.2482 21.5479 27.3088C21.573 27.3694 21.5859 27.4344 21.5859 27.5C21.5859 27.5656 21.573 27.6306 21.5479 27.6912C21.5227 27.7518 21.4859 27.8069 21.4395 27.8533L19.457 29.8359C19.3786 29.9143 19.2787 29.9677 19.17 29.9893C19.0612 30.0109 18.9485 29.9998 18.8461 29.9573C18.7437 29.9149 18.6561 29.843 18.5945 29.7509C18.5329 29.6587 18.5 29.5503 18.5 29.4395ZM23.3573 25.8497C23.5575 25.9474 23.7772 25.9988 24 26H26.2319C26.5029 25.9989 26.7685 25.9239 27 25.7831V28H22.4949C22.5677 27.8056 22.5974 27.5978 22.582 27.3908C22.5666 27.1839 22.5065 26.9827 22.4058 26.8012L23.3573 25.8497ZM20.707 30L21.707 29H27V30H20.707ZM27.1567 19.6541C27.2323 19.6082 27.3188 19.5835 27.4072 19.5828C27.5175 19.5846 27.6242 19.6217 27.7119 19.6885C27.7917 19.7476 27.8516 19.8296 27.8837 19.9235C27.9159 20.0175 27.9188 20.119 27.8921 20.2146L27.0159 23.5H27V23.5595L26.7148 24.6287C26.6864 24.7351 26.6237 24.8291 26.5364 24.8962C26.4491 24.9634 26.3421 24.9998 26.2319 25H24C23.8674 24.9999 23.7403 24.9471 23.6466 24.8534C23.5528 24.7597 23.5001 24.6326 23.5 24.5V22.0745C23.5002 21.9871 23.5232 21.9013 23.5667 21.8256C23.6102 21.7499 23.6727 21.6868 23.748 21.6426L27.1567 19.6541ZM24.6714 19.9462L23.2441 20.7788C23.018 20.9113 22.8304 21.1005 22.6999 21.3278C22.5694 21.555 22.5005 21.8124 22.5 22.0745V24.5C22.5012 24.7228 22.5525 24.9425 22.6503 25.1427L21.6982 26.0948C21.5154 25.9981 21.3146 25.9403 21.1084 25.925C20.9022 25.9097 20.6951 25.9372 20.5 26.0057V26H16.5V24.7751C17.6243 24.0663 18.5681 23.1053 19.2566 21.9684C19.9451 20.8315 20.3593 19.5499 20.4664 18.2251L24.1709 19.7068C24.3425 19.7762 24.5096 19.8562 24.6714 19.9462ZM18.8869 20.5H13.1131C12.827 19.8305 12.6387 19.1232 12.554 18.4L12.7788 18.5427C13.7423 19.1528 14.8593 19.4768 15.9997 19.4768C17.1401 19.4769 18.2571 19.153 19.2207 18.543L19.4459 18.4001C19.3613 19.1232 19.173 19.8305 18.8869 20.5ZM18.3707 21.5C17.7711 22.4708 16.9609 23.2943 16 23.9097C15.0392 23.2943 14.229 22.4708 13.6294 21.5H18.3707ZM22.5 12C22.6326 12.0001 22.7597 12.0529 22.8534 12.1466C22.9471 12.2403 22.9999 12.3674 23 12.5V12.8821C23.0003 12.975 22.9745 13.0661 22.9257 13.1451C22.8768 13.2241 22.8068 13.2878 22.7236 13.3291L22 13.6909V12H22.5ZM14.5 3V5.5H15.5V2.5C15.5 2.3674 15.5527 2.24022 15.6464 2.14645C15.7402 2.05268 15.8674 2 16 2C16.1326 2 16.2598 2.05268 16.3535 2.14645C16.4473 2.24022 16.5 2.3674 16.5 2.5V5.5H17.5V3C18.4279 3.00109 19.3175 3.37018 19.9737 4.02633C20.6298 4.68247 20.9989 5.57208 21 6.5V7H11V6.5C11.0011 5.57208 11.3702 4.68247 12.0263 4.02633C12.6825 3.37018 13.5721 3.00109 14.5 3ZM10.5 8H21.5C21.6326 8 21.7598 8.05268 21.8535 8.14645C21.9473 8.24022 22 8.36739 22 8.5C22 8.63261 21.9473 8.75979 21.8535 8.85356C21.7598 8.94732 21.6326 9 21.5 9H10.5C10.3674 9 10.2402 8.94732 10.1464 8.85356C10.0527 8.75979 10 8.63261 10 8.5C10 8.36739 10.0527 8.24022 10.1464 8.14645C10.2402 8.05268 10.3674 8 10.5 8ZM9 12.8821V12.5C9.00013 12.3674 9.05285 12.2403 9.14659 12.1466C9.24033 12.0529 9.36743 12.0001 9.5 12H10V13.6909L9.27636 13.3291C9.19314 13.2878 9.12314 13.2241 9.0743 13.1451C9.02545 13.0661 8.99971 12.975 9 12.8821ZM11 10H21V13.7554C21.002 14.5127 20.8119 15.2581 20.4475 15.922C20.0832 16.5859 19.5564 17.1465 18.9165 17.5515L18.6841 17.699C17.8811 18.2075 16.9502 18.4774 15.9997 18.4774C15.0492 18.4774 14.1184 18.2073 13.3154 17.6987L13.084 17.5517C12.4439 17.1468 11.9171 16.5861 11.5526 15.9222C11.1882 15.2583 10.998 14.5128 11 13.7554V10ZM7.82861 19.707L11.5336 18.2251C11.6407 19.5499 12.0549 20.8315 12.7434 21.9684C13.4319 23.1053 14.3757 24.0663 15.5 24.7751V26H10V25.5C9.99835 24.3987 9.59328 23.3361 8.86136 22.5131C8.12944 21.6902 7.12139 21.1639 6.02777 21.0337C6.50642 20.4466 7.12595 19.9901 7.82861 19.707ZM5 23.8853C5.00046 23.2342 5.14203 22.5911 5.41495 22H5.5C6.42792 22.0011 7.31753 22.3702 7.97368 23.0263C8.62982 23.6825 8.99891 24.5721 9 25.5V30H5V23.8853Z" fill="white" fill-opacity="0.5"/>
</svg>
