<svg width="32" height="32" viewBox="0 0 32 32" fill="none" xmlns="http://www.w3.org/2000/svg">
<g clip-path="url(#clip0)">
<path d="M21.2951 22.8114C20.5096 22.8114 19.7969 22.4114 19.3888 21.7414C19.2355 21.4898 18.9073 21.41 18.6559 21.5633C18.4044 21.7165 18.3246 22.0447 18.4779 22.2962C18.7618 22.7622 19.146 23.1385 19.5933 23.4078L19.0406 25.9162L17.708 24.3817C17.95 24.1036 17.8916 23.7787 17.6832 23.5975C17.461 23.4043 17.1241 23.4277 16.9308 23.65L15.993 24.7283L13.6309 22.1038C13.8319 21.7178 13.9538 21.294 13.9886 20.8524C18.5602 22.1982 23.1333 18.7478 23.1333 14.0083V9.59998C23.1333 9.30545 22.8945 9.06665 22.5999 9.06665C22.3054 9.06665 22.0666 9.30545 22.0666 9.59998V14.0083C22.0666 17.3534 19.3451 20.075 16 20.075C12.6548 20.075 9.9333 17.3535 9.9333 14.0083V9.48211C11.2335 9.40831 12.3394 8.59198 12.7336 7.11252C14.9542 8.53465 17.4434 9.45605 20.0557 9.82171C20.3485 9.86251 20.6171 9.65831 20.6578 9.36745C20.6986 9.07578 20.4953 8.80618 20.2036 8.76532C17.5436 8.39298 14.9479 7.39745 12.6414 5.76465C12.2888 5.51492 11.7978 5.76899 11.8 6.20339C11.8 6.21665 11.795 7.53938 10.7917 8.14298C10.1572 8.52472 9.5155 8.40145 9.40511 8.40025C9.13251 8.39765 8.90151 8.60218 8.87044 8.87198C8.86457 8.92358 8.86664 8.74792 8.86664 13.1397C8.51037 12.9549 8.26664 12.5872 8.26664 12.164V5.66666C8.26664 4.96819 8.83484 4.39999 9.53331 4.39999C9.75137 4.39999 9.9475 4.26719 10.0285 4.06472C10.757 2.24346 12.4952 1.06666 14.4568 1.06666H19.0306C21.6605 1.06666 23.7999 3.20619 23.7999 5.83605V12.164C23.7999 12.4585 24.0387 12.6973 24.3333 12.6973C24.6278 12.6973 24.8666 12.4585 24.8666 12.164V5.83605C24.8666 2.61806 22.2486 0 19.0306 0H14.4568C12.1688 0 10.129 1.30866 9.17111 3.36139C8.05591 3.53599 7.19998 4.50326 7.19998 5.66666V12.164C7.19998 13.1843 7.91384 14.0418 8.87204 14.272C8.97157 16.996 10.6054 19.3349 12.9333 20.448V20.5886C12.9333 21.1828 12.7016 21.7411 12.2808 22.1607C11.5346 22.9048 10.5943 22.8114 10.7047 22.8114C7.66231 22.8114 5.19998 25.2734 5.19998 28.3161V31.4666C5.19998 31.7611 5.43878 31.9999 5.73331 31.9999C6.02785 31.9999 6.26665 31.7611 6.26665 31.4666V28.3161C6.26665 25.8631 8.25164 23.878 10.7048 23.8781C10.9382 23.8781 11.1712 23.8533 11.4016 23.804L12.1458 27.1813C12.24 27.609 12.7826 27.7464 13.0694 27.4163L14.1201 26.2064L13.4708 31.4005C13.4343 31.6927 13.6417 31.9593 13.9339 31.9958C14.2267 32.0323 14.4928 31.8246 14.5293 31.5327L15.2796 25.53C15.3136 25.5677 15.61 25.9001 15.648 25.9337C15.8682 26.1269 16.2035 26.1073 16.3992 25.8865C16.5047 25.7658 16.2319 26.0793 16.7191 25.5191L17.4708 31.5327C17.5072 31.8245 17.7732 32.0323 18.0662 31.9957C18.3584 31.9592 18.5658 31.6927 18.5292 31.4004L17.88 26.2063L18.9307 27.4162C19.2179 27.7469 19.7601 27.6082 19.8542 27.1813L20.5984 23.8038C20.8243 23.8518 21.0573 23.878 21.2951 23.878C23.7481 23.878 25.7333 25.8629 25.7333 28.3161V31.4666C25.7333 31.7611 25.9721 31.9999 26.2666 31.9999C26.5611 31.9999 26.7999 31.7611 26.7999 31.4666V28.3161C26.7999 25.2737 24.3379 22.8113 21.2951 22.8114ZM12.9593 25.9162L12.4064 23.407C12.6098 23.2842 12.8005 23.138 12.9763 22.9708L14.2694 24.4076L12.9593 25.9162Z" fill="white" fill-opacity="0.5"/>
</g>
<defs>
<clipPath id="clip0">
<rect width="32" height="32" fill="white"/>
</clipPath>
</defs>
</svg>
