<svg width="29" height="31" viewBox="0 0 29 31" fill="none" xmlns="http://www.w3.org/2000/svg">
<path d="M27.8476 6.1228H12.649C12.3418 4.8934 11.2281 3.97981 9.90486 3.97981H9.7079L8.153 0.304611C8.07489 0.119943 7.89386 0 7.69339 0C7.49292 0 7.31188 0.120004 7.23378 0.304611L5.67887 3.97981H4.47883C4.20316 3.97981 3.97975 4.20329 3.97975 4.47889V6.12274H0.499088C0.223418 6.12274 0 6.34622 0 6.62183V10.6018C0 10.8774 0.223418 11.1008 0.499088 11.1008H3.97987V12.2345C3.97987 12.5101 4.20329 12.7336 4.47895 12.7336H5.20443V27.3486H1.82567C1.55 27.3486 1.32658 27.5721 1.32658 27.8477V30.5009C1.32658 30.7765 1.55 31 1.82567 31H8.78347C9.05914 31 9.28256 30.7765 9.28256 30.5009C9.28256 30.2253 9.05914 30.0018 8.78347 30.0018H2.32476V28.3468H13.062V30.0018H10.3805C10.1048 30.0018 9.88143 30.2253 9.88143 30.5009C9.88143 30.7765 10.1048 31 10.3805 31H13.5611C13.8368 31 14.0602 30.7765 14.0602 30.5009V27.8477C14.0602 27.5721 13.8368 27.3486 13.5611 27.3486H10.1824V12.7336H12.2345C12.5102 12.7336 12.7336 12.5101 12.7336 12.2345V11.1008H24.8995V15.6288H24.6001C24.3244 15.6288 24.101 15.8523 24.101 16.1279C24.101 16.4035 24.3244 16.627 24.6001 16.627H24.8995V17.8981C24.8995 18.1737 25.1229 18.3972 25.3986 18.3972C25.897 18.3972 26.3026 18.8027 26.3026 19.3012C26.3026 19.7997 25.897 20.2053 25.3986 20.2053C24.9001 20.2053 24.4945 19.7997 24.4945 19.3012C24.4945 19.0256 24.2711 18.8021 23.9954 18.8021C23.7197 18.8021 23.4963 19.0256 23.4963 19.3012C23.4963 20.35 24.3496 21.2035 25.3986 21.2035C26.4475 21.2035 27.3008 20.3501 27.3008 19.3012C27.3008 18.425 26.7052 17.6852 25.8977 17.4654V16.627H26.1971C26.4727 16.627 26.6961 16.4035 26.6961 16.1279C26.6961 15.8523 26.4727 15.6288 26.1971 15.6288H25.8977V11.1008H27.8477C28.1234 11.1008 28.3468 10.8773 28.3468 10.6017V6.62183C28.3467 6.34622 28.1233 6.1228 27.8476 6.1228ZM0.998176 10.1027V7.82683L3.27401 10.1027H0.998176ZM3.97975 9.39681L1.70391 7.12098H3.97975V9.39681ZM7.69339 1.78002L8.62411 3.97987H6.76272L7.69339 1.78002ZM9.18417 27.3485H6.90834L9.18417 25.0727V27.3485ZM6.20254 26.6428V21.093L8.97747 23.8679L6.20254 26.6428ZM9.18417 22.6629L6.40925 19.888L9.18417 17.1132V22.6629ZM6.20254 18.6831V13.4394L8.8244 16.0613L6.20254 18.6831ZM9.18417 15.0094L6.90834 12.7336H9.18417V15.0094ZM11.7354 9.45609H8.14137V7.97669C8.14137 7.70108 7.91796 7.4776 7.64229 7.4776C7.36662 7.4776 7.1432 7.70108 7.1432 7.97669V9.95518C7.1432 10.2308 7.36662 10.4543 7.64229 10.4543H11.7354V11.7354H4.97792V4.97804H7.14314V6.34634C7.14314 6.62195 7.36656 6.84543 7.64223 6.84543C7.9179 6.84543 8.14131 6.62195 8.14131 6.34634V4.97804H9.3755C9.37611 4.97804 9.37671 4.97816 9.37732 4.97816C9.37817 4.97816 9.90486 4.97804 9.90486 4.97804C10.9142 4.97804 11.7354 5.79924 11.7354 6.80856V9.45609H11.7354ZM12.7336 9.39681V7.12098H15.0094L12.7336 9.39681ZM13.4394 10.1027L16.0613 7.48081L18.6831 10.1027H13.4394ZM17.1131 7.12098H22.6629L19.8879 9.8959L17.1131 7.12098ZM21.0929 10.1027L23.8678 7.32775L26.6427 10.1027H21.0929ZM27.3485 9.39681L25.0727 7.12098H27.3485V9.39681Z" fill="white" fill-opacity="0.5"/>
</svg>
