<svg width="45" height="124" viewBox="0 0 45 124" fill="none" xmlns="http://www.w3.org/2000/svg">
<path d="M29.1134 47.3196L39.6701 62H31.0103L21.3608 48.3918H12.4536V62H5.60825V21.6701H20.6186C26.7217 21.6701 31.0928 22.7148 33.732 24.8041C36.4261 26.8385 37.7732 30.1649 37.7732 34.7835C37.7732 41.4364 34.8866 45.6151 29.1134 47.3196ZM20.866 42.2887C24.6598 42.2887 27.2715 41.7113 28.701 40.5567C30.1306 39.4021 30.8454 37.4502 30.8454 34.701C30.8454 32.0619 30.1306 30.2749 28.701 29.3402C27.2715 28.3505 24.7148 27.8557 21.0309 27.8557H12.4536V42.2887H20.866Z" fill="white"/>
<path d="M0 86L45 86" stroke="white"/>
</svg>
