<svg width="15" height="15" viewBox="0 0 15 15" fill="none" xmlns="http://www.w3.org/2000/svg">
<path fill-rule="evenodd" clip-rule="evenodd" d="M1.7702 0.292893C1.37968 -0.0976311 0.746511 -0.0976311 0.355987 0.292893C-0.0345377 0.683418 -0.034538 1.31658 0.355986 1.70711L5.59541 6.94653L0.301689 12.2403C-0.100563 12.6425 -0.100563 13.2947 0.301689 13.6969C0.703941 14.0992 1.35612 14.0992 1.75837 13.6969L7.0521 8.40322L12.3768 13.7279C12.7673 14.1184 13.4005 14.1184 13.791 13.7279C14.1815 13.3374 14.1815 12.7042 13.791 12.3137L8.46631 6.989L13.6835 1.77178C14.0858 1.36953 14.0858 0.717348 13.6835 0.315095C13.2813 -0.0871568 12.6291 -0.0871573 12.2269 0.315095L7.00963 5.53232L1.7702 0.292893Z" fill="black" fill-opacity="0.5"/>
</svg>
