<svg width="32" height="32" viewBox="0 0 32 32" fill="none" xmlns="http://www.w3.org/2000/svg">
<g clip-path="url(#clip0)">
<path d="M21.2953 22.8114C20.5098 22.8114 19.7972 22.4114 19.389 21.7414C19.2358 21.4898 18.9076 21.41 18.6561 21.5633C18.4046 21.7165 18.3248 22.0447 18.4781 22.2962C18.762 22.7622 19.1462 23.1385 19.5936 23.4078L19.0408 25.9162L17.7082 24.3817C17.9502 24.1036 17.8918 23.7787 17.6834 23.5975C17.4612 23.4043 17.1243 23.4277 16.931 23.65L15.9932 24.7283L13.6311 22.1038C13.8321 21.7178 13.954 21.294 13.9888 20.8524C18.5604 22.1982 23.1335 18.7478 23.1335 14.0083V9.59998C23.1335 9.30545 22.8947 9.06665 22.6002 9.06665C22.3056 9.06665 22.0668 9.30545 22.0668 9.59998V14.0083C22.0668 17.3534 19.3454 20.075 16.0002 20.075C12.655 20.075 9.93352 17.3535 9.93352 14.0083V9.48211C11.2337 9.40831 12.3396 8.59198 12.7338 7.11252C14.9544 8.53465 17.4436 9.45605 20.0559 9.82171C20.3487 9.86251 20.6174 9.65831 20.658 9.36745C20.6988 9.07578 20.4955 8.80618 20.2038 8.76532C17.5438 8.39298 14.9481 7.39745 12.6416 5.76465C12.289 5.51492 11.798 5.76899 11.8002 6.20339C11.8002 6.21665 11.7952 7.53938 10.7919 8.14298C10.1575 8.52472 9.51572 8.40145 9.40532 8.40025C9.13272 8.39765 8.90172 8.60218 8.87065 8.87198C8.86479 8.92358 8.86685 8.74792 8.86685 13.1397C8.51059 12.9549 8.26686 12.5872 8.26686 12.164V5.66666C8.26686 4.96819 8.83505 4.39999 9.53352 4.39999C9.75159 4.39999 9.94772 4.26719 10.0287 4.06472C10.7572 2.24346 12.4954 1.06666 14.457 1.06666H19.0308C21.6607 1.06666 23.8002 3.20619 23.8002 5.83605V12.164C23.8002 12.4585 24.039 12.6973 24.3335 12.6973C24.628 12.6973 24.8668 12.4585 24.8668 12.164V5.83605C24.8668 2.61806 22.2488 0 19.0308 0H14.457C12.169 0 10.1292 1.30866 9.17132 3.36139C8.05612 3.53599 7.20019 4.50326 7.20019 5.66666V12.164C7.20019 13.1843 7.91406 14.0418 8.87225 14.272C8.97179 16.996 10.6056 19.3349 12.9335 20.448V20.5886C12.9335 21.1828 12.7018 21.7411 12.281 22.1607C11.5348 22.9048 10.5945 22.8114 10.7049 22.8114C7.66252 22.8114 5.2002 25.2734 5.2002 28.3161V31.4666C5.2002 31.7611 5.43899 31.9999 5.73353 31.9999C6.02806 31.9999 6.26686 31.7611 6.26686 31.4666V28.3161C6.26686 25.8631 8.25185 23.878 10.705 23.8781C10.9384 23.8781 11.1714 23.8533 11.4018 23.804L12.146 27.1813C12.2402 27.609 12.7828 27.7464 13.0696 27.4163L14.1203 26.2064L13.471 31.4005C13.4345 31.6927 13.6419 31.9593 13.9341 31.9958C14.2269 32.0323 14.493 31.8246 14.5295 31.5327L15.2798 25.53C15.3138 25.5677 15.6102 25.9001 15.6482 25.9337C15.8684 26.1269 16.2037 26.1073 16.3994 25.8865C16.5049 25.7658 16.2321 26.0793 16.7193 25.5191L17.471 31.5327C17.5074 31.8245 17.7734 32.0323 18.0664 31.9957C18.3586 31.9592 18.566 31.6927 18.5294 31.4004L17.8802 26.2063L18.9309 27.4162C19.2181 27.7469 19.7604 27.6082 19.8544 27.1813L20.5986 23.8038C20.8246 23.8518 21.0575 23.878 21.2954 23.878C23.7483 23.878 25.7335 25.8629 25.7335 28.3161V31.4666C25.7335 31.7611 25.9723 31.9999 26.2668 31.9999C26.5613 31.9999 26.8001 31.7611 26.8001 31.4666V28.3161C26.8001 25.2737 24.3381 22.8113 21.2953 22.8114ZM12.9595 25.9162L12.4066 23.407C12.61 23.2842 12.8007 23.138 12.9765 22.9708L14.2696 24.4076L12.9595 25.9162Z" fill="white"/>
</g>
<defs>
<clipPath id="clip0">
<rect width="32" height="32" fill="white"/>
</clipPath>
</defs>
</svg>
