<svg width="32" height="32" viewBox="0 0 32 32" fill="none" xmlns="http://www.w3.org/2000/svg">
<path d="M22.5635 24.5V27C22.5635 29.7571 20.3205 32 17.5633 32H5.00022C2.24302 32 0 29.7571 0 27V5C0 2.24292 2.24302 0 5.00022 0H17.5633C20.3205 0 22.5635 2.24292 22.5635 5V7.5C22.5635 8.19043 22.0039 8.75 21.3134 8.75C20.623 8.75 20.0634 8.19043 20.0634 7.5V5C20.0634 3.62158 18.9417 2.5 17.5633 2.5H5.00022C3.62174 2.5 2.50011 3.62158 2.50011 5V27C2.50011 28.3784 3.62174 29.5 5.00022 29.5H17.5633C18.9417 29.5 20.0634 28.3784 20.0634 27V24.5C20.0634 23.8096 20.623 23.25 21.3134 23.25C22.0039 23.25 22.5635 23.8096 22.5635 24.5ZM31.0861 13.8528L28.2869 11.0537C27.7986 10.5654 27.007 10.5654 26.519 11.0537C26.0307 11.5417 26.0307 12.3333 26.519 12.8213L28.51 14.8125H13.5006C12.8101 14.8125 12.2505 15.3721 12.2505 16.0625C12.2505 16.7529 12.8101 17.3125 13.5006 17.3125H28.51L26.519 19.3037C26.0307 19.7917 26.0307 20.5833 26.519 21.0713C26.7631 21.3154 27.083 21.4375 27.4028 21.4375C27.7229 21.4375 28.0427 21.3154 28.2869 21.0713L31.0861 18.2722C32.3046 17.0537 32.3046 15.0713 31.0861 13.8528Z" fill="white" fill-opacity="0.5"/>
</svg>
