<svg width="27" height="32" viewBox="0 0 27 32" fill="none" xmlns="http://www.w3.org/2000/svg">
<path d="M22.875 13.1623C22.875 15.8651 22.875 18.5678 22.875 21.2705C22.875 24.5137 23.9167 26.6759 26 27.7569H1C3.08333 26.6759 4.125 24.5137 4.125 21.2705C4.125 18.5678 4.125 15.8651 4.125 13.1623C4.125 7.78877 8.32233 3.43262 13.5 3.43262C18.6777 3.43262 22.875 7.78877 22.875 13.1623Z" stroke="black" stroke-linecap="square" stroke-linejoin="round"/>
<path d="M10.375 27.7568C10.375 29.548 11.7741 31.0001 13.5 31.0001C15.2259 31.0001 16.625 29.548 16.625 27.7568" stroke="black" stroke-linecap="square"/>
<path d="M15.8437 3.43262C15.8437 2.08922 14.7944 1.00018 13.5 1.00018C12.2056 1.00018 11.1562 2.08922 11.1562 3.43262" stroke="black" stroke-linecap="square"/>
</svg>
