<?xml version="1.0"?>
<svg xmlns="http://www.w3.org/2000/svg" viewBox="0 0 64 64" width="512" height="512"><title>Constructionworker-job-avatar-profession-occupation-builder-engineer-supervisor-worker</title><g id="Original"><path d="M56,62V47.37823l1.71582-6.43341a2.9995,2.9995,0,0,0-4.41016-3.36425l-2.0249,1.18127a11.00033,11.00033,0,0,0-2.1958-1.2052l-7.619-3.04742a10.88429,10.88429,0,0,0,2.28766-4.76783l2.5882-1.29412A2.98446,2.98446,0,0,0,48,25.76416V25a3.00328,3.00328,0,0,0-3-3H44V19.81573a2.98208,2.98208,0,0,0,0-5.63146V13a9.01016,9.01016,0,0,0-9-9h-.18427a2.98208,2.98208,0,0,0-5.63146,0H29a9.01016,9.01016,0,0,0-9,9v1.18427a2.982,2.982,0,0,0,0,5.6314V22H19a3.00328,3.00328,0,0,0-3,3v.76416a2.98446,2.98446,0,0,0,1.6582,2.68311l2.58826,1.29412a10.88359,10.88359,0,0,0,2.28778,4.76777l-7.6192,3.048A10.947,10.947,0,0,0,8,47.77051V62ZM20,54H31v2H20Zm16.58594,2H33V54h5.58594ZM20,58H31v2H20Zm13,0h2.14008a2.92547,2.92547,0,0,0,.07678,2H33Zm4,.87891a1.11307,1.11307,0,0,1,.32812-.793L41.293,54.12158a1.00141,1.00141,0,0,1,1.41406-.00049l.17188.17237a.99845.99845,0,0,1,0,1.41308l-3.96485,3.96534A1.12143,1.12143,0,0,1,37,58.87891Zm9.71466-7.17951A2.96548,2.96548,0,0,0,48,52h4.46387A2.9791,2.9791,0,0,0,54,51.56622V56H44.98987a2.86881,2.86881,0,0,0-.17829-2.39752ZM41.41406,60l2-2H54v2ZM54.31348,39.30811a.98143.98143,0,0,1,.501-.14258,1.034,1.034,0,0,1,.60938.21142.98135.98135,0,0,1,.36035,1.05225L54.03174,47H54v.119l-.57031,2.13836A1.0013,1.0013,0,0,1,52.46387,50H48a1.001,1.001,0,0,1-1-1V44.14893a1.00409,1.00409,0,0,1,.49609-.86377Zm-4.97065.58429-2.85455,1.66522A3.01018,3.01018,0,0,0,45,44.14893V49a2.96548,2.96548,0,0,0,.3006,1.28534l-1.90424,1.90424A2.99951,2.99951,0,0,0,41,52.01141V52H33V49.55011a17.11644,17.11644,0,0,0,7.93286-13.09985l7.40894,2.96331A9.01128,9.01128,0,0,1,49.34283,39.8924ZM37.77386,41H26.2262a15.1756,15.1756,0,0,1-1.11811-4.2l.44953.28546a12.04207,12.04207,0,0,0,12.88379.00049l.4505-.28583A15.1779,15.1779,0,0,1,37.77386,41Zm-1.03253,2A15.22052,15.22052,0,0,1,32,47.81934,15.22321,15.22321,0,0,1,27.25879,43ZM45,24a1.001,1.001,0,0,1,1,1v.76416a.9945.9945,0,0,1-.55273.894L44,27.38184V24ZM29,6v5h2V5a1,1,0,0,1,2,0v6h2V6a7.00818,7.00818,0,0,1,7,7v1H22V13A7.00818,7.00818,0,0,1,29,6ZM21,16H43a1,1,0,0,1,0,2H21a1,1,0,0,1,0-2Zm-3,9.76416V25a1.001,1.001,0,0,1,1-1h1v3.38184l-1.44727-.72364A.9945.9945,0,0,1,18,25.76416ZM22,20H42v7.51074A8.95725,8.95725,0,0,1,37.833,35.103l-.46485.29492a10.03356,10.03356,0,0,1-10.7373-.00049l-.46289-.29394A8.95735,8.95735,0,0,1,22,27.51074ZM15.65723,39.41406l7.40991-2.9638A17.11654,17.11654,0,0,0,31,49.55011V52H20V51a9.00916,9.00916,0,0,0-7.94446-8.93256A8.97325,8.97325,0,0,1,15.65723,39.41406ZM10,47.77051A9.00924,9.00924,0,0,1,10.8299,44H11a7.00818,7.00818,0,0,1,7,7v9H10Z"/></g></svg>
