<svg width="25" height="25" viewBox="0 0 25 25" fill="none" xmlns="http://www.w3.org/2000/svg">
<g clip-path="url(#clip0)">
<path d="M12.5001 6.66675C9.28344 6.66675 6.66675 9.2834 6.66675 12.5001C6.66675 15.7168 9.28344 18.3334 12.5001 18.3334C12.7301 18.3334 12.9167 18.1468 12.9167 17.9168C12.9167 17.6868 12.7301 17.5001 12.5001 17.5001C9.74301 17.5001 7.5001 15.2572 7.5001 12.5001C7.5001 9.74301 9.74301 7.5001 12.5001 7.5001C15.2572 7.5001 17.5001 9.74301 17.5001 12.5001C17.5001 14.678 16.1093 16.5901 14.0384 17.2588C13.8197 17.3297 13.6993 17.5646 13.7701 17.7838C13.841 18.0026 14.0747 18.1218 14.2951 18.0521C16.7105 17.2717 18.3334 15.0405 18.3334 12.5C18.3334 9.28344 15.7167 6.66675 12.5001 6.66675Z" fill="white"/>
<path d="M12.5001 10.8335C11.581 10.8335 10.8335 11.581 10.8335 12.5001C10.8335 13.4193 11.581 14.1668 12.5001 14.1668C13.4193 14.1668 14.1668 13.4193 14.1668 12.5001C14.1668 11.581 13.4193 10.8335 12.5001 10.8335ZM12.5001 13.3335C12.0406 13.3335 11.6668 12.9598 11.6668 12.5001C11.6668 12.0406 12.0405 11.6668 12.5001 11.6668C12.9597 11.6668 13.3335 12.0405 13.3335 12.5001C13.3335 12.9597 12.9597 13.3335 12.5001 13.3335Z" fill="white"/>
<path d="M24.2571 10.01L22.0446 9.51875C21.8658 8.94458 21.6354 8.38833 21.3579 7.85874L22.5842 5.92998C22.8312 5.49829 22.8087 5.13125 22.5171 4.83955L20.16 2.48247C19.9688 2.29121 19.7613 2.25122 19.6212 2.25122C19.4187 2.25122 19.2379 2.32954 19.0529 2.42583L17.1413 3.64248C16.6117 3.36455 16.055 3.13413 15.4812 2.95498L14.985 0.72373C14.8546 0.24375 14.5792 0.000439453 14.1667 0H10.8333C10.25 0 10.0833 0.51167 10.01 0.74292L9.5187 2.95503C8.94409 3.13418 8.38789 3.3646 7.85869 3.64253L5.92993 2.41587C5.80161 2.34253 5.60576 2.24463 5.38618 2.24463C5.18203 2.24463 4.99824 2.32461 4.8395 2.48257L2.48291 4.8396C2.06958 5.2521 2.31372 5.73169 2.42539 5.94712L3.64248 7.85879C3.36455 8.38838 3.13413 8.94502 2.95542 9.51836L0.72373 10.0146C0.243311 10.1458 0 10.4212 0 10.8333V14.1667C0 14.75 0.51167 14.9167 0.74292 14.99L2.95542 15.4817C3.13418 16.0546 3.3646 16.6113 3.64248 17.1413L2.41582 19.0696C2.16831 19.5013 2.19082 19.8683 2.48291 20.1604L4.8396 22.5175C5.03125 22.7087 5.23833 22.7487 5.37876 22.7487C5.58086 22.7487 5.76211 22.6708 5.94707 22.5742L7.85874 21.3575C8.38833 21.6354 8.94458 21.8659 9.51875 22.0446L10.0146 24.2763C10.1454 24.7563 10.4208 25 10.8333 25H14.1667C14.7496 25 14.9167 24.4883 14.99 24.2571L15.4813 22.045C16.055 21.8663 16.6117 21.6354 17.1413 21.358L19.0696 22.5846C19.1984 22.658 19.3946 22.7559 19.6138 22.7559C19.8184 22.7559 20.0026 22.6754 20.1605 22.5171L22.5172 20.1604C22.9301 19.7475 22.6859 19.2679 22.5743 19.0529L21.3576 17.1412C21.6355 16.6112 21.866 16.055 22.0447 15.4816L24.2764 14.985C24.7568 14.8545 25.0001 14.5792 25.0001 14.1667V10.8333C25 10.25 24.4879 10.0833 24.2571 10.01ZM24.1663 14.1454C24.1471 14.1538 24.1179 14.165 24.0763 14.1762L21.625 14.7212C21.4758 14.7546 21.3567 14.8666 21.3146 15.0137C21.1221 15.6904 20.8513 16.3441 20.5108 16.9558C20.4363 17.0896 20.4413 17.2533 20.5233 17.3821L21.8513 19.4658C21.883 19.5279 21.8992 19.5675 21.9071 19.5921L19.5854 21.9125C19.5658 21.905 19.5379 21.8925 19.5 21.8712L17.3817 20.5233C17.2529 20.4413 17.0892 20.4367 16.9554 20.5108C16.3442 20.8517 15.6913 21.1221 15.0138 21.3146C14.8667 21.3567 14.7542 21.4758 14.7213 21.625L14.1871 24.0371C14.1654 24.1041 14.1488 24.1438 14.1371 24.1667L10.8546 24.1658C10.8458 24.1466 10.835 24.1179 10.8233 24.0762L10.2788 21.625C10.2458 21.4758 10.1333 21.3566 9.98628 21.3146C9.30879 21.1216 8.65547 20.8512 8.04463 20.5108C7.91089 20.4362 7.74756 20.4412 7.61797 20.5229L5.53462 21.8512C5.47212 21.8833 5.43213 21.8991 5.40835 21.9074L3.0875 19.5854C3.09502 19.5662 3.10752 19.5378 3.12915 19.5L4.47666 17.382C4.55874 17.2529 4.56372 17.0896 4.48916 16.9558C4.14834 16.3437 3.87793 15.6903 3.6854 15.0137C3.64331 14.8666 3.52417 14.7545 3.375 14.7212L0.9625 14.187C0.89585 14.1653 0.85625 14.1487 0.83335 14.1375L0.833789 10.8545C0.852979 10.8462 0.881689 10.835 0.923779 10.8233L3.37505 10.2787C3.52422 10.2454 3.64336 10.1333 3.68545 9.98623C3.87793 9.30913 4.14878 8.65581 4.4896 8.04414C4.56416 7.9104 4.55918 7.74663 4.4771 7.61748L3.14834 5.53418C3.1167 5.47212 3.10083 5.43291 3.09253 5.40835L5.41421 3.0875C5.43379 3.09502 5.46172 3.10752 5.49961 3.12876L7.61836 4.4771C7.74751 4.55918 7.91128 4.56416 8.04502 4.48916C8.65503 4.14873 9.30796 3.87832 9.98628 3.68501C10.1333 3.64336 10.2458 3.52417 10.2788 3.37461L10.8129 0.962109C10.8346 0.89585 10.8513 0.856299 10.8625 0.83335L14.145 0.833789C14.1538 0.852979 14.1646 0.881689 14.1763 0.923389L14.7213 3.37505C14.7542 3.52422 14.8667 3.64336 15.0138 3.68545C15.6909 3.87837 16.3446 4.14878 16.9559 4.48921C17.09 4.56377 17.2529 4.55923 17.3825 4.47715L19.4654 3.14883C19.5284 3.11675 19.5679 3.10093 19.5921 3.09258L21.9121 5.41426C21.905 5.43384 21.8925 5.46177 21.8709 5.49966L20.5233 7.61841C20.4413 7.74717 20.4363 7.91089 20.5108 8.04468C20.8513 8.65508 21.1217 9.30845 21.3146 9.98633C21.3567 10.1334 21.4758 10.2459 21.625 10.2788L24.0379 10.8134C24.1042 10.8346 24.1437 10.8513 24.1667 10.8629L24.1663 14.1454Z" fill="white"/>
</g>
<defs>
<clipPath id="clip0">
<rect width="25" height="25" fill="white"/>
</clipPath>
</defs>
</svg>
