<svg width="31" height="31" viewBox="0 0 31 31" fill="none" xmlns="http://www.w3.org/2000/svg">
<g clip-path="url(#clip0)">
<path d="M27.2581 24.67C27.167 24.6109 26.4812 24.1304 25.7944 22.677C24.5333 20.008 24.2686 16.2481 24.2686 13.564C24.2686 13.5523 24.2684 13.5408 24.2679 13.5291C24.2542 9.98176 22.13 6.92378 19.0903 5.55172V3.45335C19.0903 1.54915 17.5437 0 15.6427 0H15.3569C13.4559 0 11.9093 1.54915 11.9093 3.45335V5.5516C8.85942 6.92808 6.73101 10.0017 6.73101 13.564C6.73101 16.2481 6.4663 20.0079 5.20517 22.677C4.51851 24.1304 3.8327 24.6108 3.74151 24.67C3.35752 24.8477 3.16819 25.2582 3.25653 25.6742C3.34572 26.0944 3.73842 26.384 4.16728 26.384H10.8242C10.8614 28.9355 12.9439 31 15.4998 31C18.0558 31 20.1383 28.9355 20.1754 26.384H26.8324C27.2612 26.384 27.654 26.0944 27.7431 25.6742C27.8314 25.2582 27.6421 24.8477 27.2581 24.67ZM13.7258 3.45335C13.7258 2.55235 14.4575 1.81937 15.357 1.81937H15.6427C16.5422 1.81937 17.274 2.55235 17.274 3.45335V4.962C16.7007 4.84351 16.1073 4.78114 15.4996 4.78114C14.8921 4.78114 14.2988 4.84345 13.7258 4.96182V3.45335H13.7258ZM15.4998 29.1806C13.9454 29.1806 12.6775 27.9323 12.6406 26.3841H18.359C18.3222 27.9323 17.0543 29.1806 15.4998 29.1806ZM19.1569 24.5646C19.1567 24.5646 6.23707 24.5646 6.23707 24.5646C6.39419 24.3197 6.5541 24.0425 6.71303 23.7292C7.93027 21.3289 8.54748 17.9089 8.54748 13.564C8.54748 9.72431 11.6662 6.60052 15.4995 6.60052C19.3329 6.60052 22.4516 9.72431 22.4516 13.567C22.4516 13.5782 22.4518 13.5894 22.4522 13.6005C22.4556 17.9279 23.0728 21.3357 24.2866 23.7292C24.4456 24.0426 24.6055 24.3197 24.7626 24.5646H19.1569Z" fill="white" fill-opacity="0.5"/>
</g>
<defs>
<clipPath id="clip0">
<rect width="31" height="31" fill="white"/>
</clipPath>
</defs>
</svg>
